<svg xmlns="http://www.w3.org/2000/svg" viewBox="0 0 64 64" fill="none">
  <defs>
    <radialGradient id="bg" cx="36%" cy="28%" r="72%">
      <stop offset="0%" stop-color="#ffffff" />
      <stop offset="100%" stop-color="#e8ecf2" />
    </radialGradient>
    <linearGradient id="orcaAccent" x1="0" y1="0" x2="1" y2="1">
      <stop offset="0%" stop-color="#2bd08a" />
      <stop offset="100%" stop-color="#10a36a" />
    </linearGradient>
  </defs>

  <circle cx="32" cy="32" r="30" fill="url(#bg)" />

  <!-- Main orca body -->
  <path d="M49 21c-4-4-11-6-17-5-9 2-14 8-16 16-1 5 1 10 6 13 5 3 11 2 16-1 4-2 8-5 11-10 2-4 2-9 0-13z" fill="#101820"/>

  <!-- White jaw / belly cut -->
  <path d="M26 36c5 1 11-1 15-5-2 5-6 8-11 10-4 1-8 1-11-1 2-3 4-4 7-4z" fill="#ffffff"/>

  <!-- Eye patch -->
  <ellipse cx="35" cy="25" rx="3.4" ry="2.2" fill="#ffffff"/>

  <!-- Accent fin stroke -->
  <path d="M41 14c2 4 1 7-2 10" stroke="url(#orcaAccent)" stroke-width="2.6" stroke-linecap="round"/>

  <!-- Slicer slash accent -->
  <path d="M18 45l28-24" stroke="#1e293b" stroke-width="1.4" stroke-linecap="round" opacity="0.35"/>
</svg>
